<?xml version="1.0" standalone="no"?>
<!DOCTYPE svg PUBLIC "-//W3C//DTD SVG 20010904//EN"
 "http://www.w3.org/TR/2001/REC-SVG-20010904/DTD/svg10.dtd">
<svg version="1.0" xmlns="http://www.w3.org/2000/svg"
 width="600.000000pt" height="172.000000pt" viewBox="0 0 600.000000 172.000000"
 preserveAspectRatio="xMidYMid meet">
<metadata>
Created by potrace 1.10, written by Peter Selinger 2001-2011
</metadata>
<g transform="translate(0.000000,172.000000) scale(0.100000,-0.100000)"
fill="#ffffff" stroke="none">
<path d="M382 1460 c-49 -69 -127 -180 -175 -247 l-87 -123 259 0 258 0 44 63
c24 34 47 67 52 72 4 6 58 80 118 165 60 85 116 162 124 171 8 8 15 17 15 20
0 2 -34 4 -75 4 -41 0 -75 -4 -75 -8 0 -5 -5 -5 -11 -2 -5 4 -89 8 -185 8
l-174 2 -88 -125z m154 36 l20 -28 35 51 c45 67 68 68 111 1 18 -27 35 -50 38
-50 3 0 19 22 37 49 39 60 68 64 101 17 23 -34 28 -56 13 -56 -5 0 -12 -8 -16
-19 -3 -10 -17 -31 -32 -47 -24 -27 -26 -27 -39 -9 -8 10 -14 21 -14 25 0 3
-9 11 -21 18 -17 11 -15 5 10 -32 36 -52 37 -56 13 -82 -10 -10 -28 -34 -41
-53 -23 -32 -25 -33 -38 -15 -8 11 -23 30 -34 44 -27 33 -13 4 17 -37 28 -37
29 -46 8 -64 -8 -7 -24 -29 -34 -50 -23 -43 -34 -49 -123 -56 -62 -4 -67 -3
-60 14 6 17 5 17 -13 2 -26 -21 -179 -28 -171 -7 3 8 54 84 114 169 122 172
137 196 99 157 -14 -15 -26 -30 -26 -33 0 -9 -82 -119 -92 -123 -4 -2 -8 -8
-8 -13 0 -5 -25 -43 -55 -84 l-56 -75 -54 0 c-30 0 -55 4 -55 9 0 11 201 295
212 299 4 2 8 8 8 13 0 5 15 29 34 54 19 24 38 55 42 67 l7 22 21 -25 c11 -13
30 -37 42 -53z m54 57 c0 -5 -9 -19 -19 -32 l-18 -24 -17 24 c-23 33 -20 39
19 39 19 0 35 -3 35 -7z m190 1 c0 -3 -8 -17 -19 -30 -17 -22 -19 -22 -33 -6
-32 37 -31 42 11 42 23 0 41 -3 41 -6z m150 -14 c-6 -11 -14 -20 -18 -20 -4 0
-13 9 -20 20 -11 18 -10 20 18 20 28 0 30 -2 20 -20z"/>
<path d="M570 1455 c0 -5 66 -104 75 -113 2 -3 59 74 79 106 19 31 -6 7 -39
-39 l-37 -50 -35 50 c-31 47 -43 60 -43 46z"/>
<path d="M613 1308 c-15 -20 -25 -38 -20 -38 3 0 12 11 21 25 17 26 16 35 -1
13z"/>
<path d="M542 1210 c-25 -33 -30 -56 -6 -25 18 24 36 55 31 55 -2 0 -13 -13
-25 -30z"/>
<path d="M495 1150 c-3 -5 -1 -10 4 -10 6 0 11 5 11 10 0 6 -2 10 -4 10 -3 0
-8 -4 -11 -10z"/>
<path d="M954 1482 c-33 -48 -93 -134 -133 -190 -40 -57 -71 -106 -68 -108 6
-6 87 102 87 115 0 6 7 7 17 4 11 -4 14 -3 9 5 -4 7 9 32 28 58 20 26 36 53
36 60 0 29 19 10 85 -83 38 -54 95 -134 127 -179 32 -44 58 -84 58 -88 0 -13
-252 -366 -262 -366 -4 0 -8 6 -8 14 0 7 -16 34 -36 60 -19 25 -32 51 -29 56
3 6 -1 7 -9 4 -15 -6 -21 6 -17 29 1 5 -2 6 -7 3 -5 -3 -22 17 -38 44 -16 27
-35 52 -42 55 -9 3 -10 0 -5 -9 21 -36 269 -386 273 -385 3 0 68 91 145 202
77 110 155 221 174 246 22 30 31 49 25 57 -5 7 -77 109 -160 226 -83 117 -157
223 -165 236 -8 12 -16 22 -19 22 -3 0 -32 -40 -66 -88z m118 -21 c17 -25 45
-65 62 -89 17 -23 48 -66 68 -95 87 -120 138 -201 134 -211 -3 -10 -63 -95
-248 -355 -29 -41 -56 -79 -60 -85 -7 -11 -18 -1 -54 51 -15 21 -13 26 42 105
32 46 68 97 80 115 12 18 24 29 28 26 3 -4 6 -1 6 7 0 7 18 39 40 72 22 33 40
67 40 75 0 9 -22 45 -49 82 -26 36 -71 100 -99 142 -28 42 -57 83 -65 90 -8 8
-19 25 -26 38 -11 20 -9 28 15 62 31 45 36 43 86 -30z"/>
<path d="M1561 1426 c-18 -6 -51 -27 -72 -45 -127 -106 -109 -299 36 -382 135
-77 309 0 344 152 6 24 11 47 11 52 0 4 -54 7 -120 7 l-120 0 0 -27 0 -28 90
3 c49 2 90 1 90 -3 0 -15 -31 -62 -57 -87 -83 -79 -222 -59 -280 40 -57 96
-23 209 77 260 72 36 151 23 211 -34 23 -22 27 -23 45 -9 18 15 18 17 -23 54
-62 56 -154 75 -232 47z"/>
<path d="M4326 1427 c-22 -16 -18 -55 6 -71 26 -16 72 4 76 33 6 40 -46 64
-82 38z m59 -26 c3 -6 -4 -15 -16 -22 -17 -9 -23 -8 -30 2 -4 7 -5 17 -3 21 7
11 42 10 49 -1z"/>
<path d="M2831 1268 c-7 -51 -19 -131 -27 -178 -8 -47 -14 -88 -14 -92 0 -5
14 -8 30 -8 27 0 30 3 30 33 1 17 7 61 14 97 l12 65 54 -107 c30 -60 57 -108
60 -108 3 0 30 48 59 108 30 59 56 101 58 95 3 -7 10 -50 16 -95 12 -80 13
-83 40 -86 27 -3 28 -2 23 30 -3 18 -12 78 -21 133 -9 55 -19 124 -23 154 l-7
54 -70 -136 c-39 -75 -72 -137 -75 -137 -3 0 -37 61 -76 136 l-71 135 -12 -93z
m59 -62 c0 -5 -3 -6 -7 -3 -3 4 -12 2 -20 -4 -10 -9 -13 -7 -13 9 0 11 3 28 7
37 5 15 8 14 19 -6 7 -13 13 -28 14 -33z m230 26 c0 -19 -5 -29 -15 -29 -18 0
-19 11 -3 37 17 26 18 25 18 -8z m-113 -177 c-2 -5 -10 -10 -17 -10 -7 0 -15
5 -17 10 -2 6 6 11 17 11 11 0 19 -5 17 -11z"/>
<path d="M3379 1338 c0 -7 -37 -88 -82 -180 l-82 -168 31 0 c23 0 34 6 42 25
11 24 15 25 102 25 87 0 91 -1 102 -25 9 -19 19 -25 43 -25 l32 0 -71 148
c-40 81 -78 162 -85 180 -13 32 -31 43 -32 20z m21 -72 c0 -8 -7 -16 -15 -20
-17 -6 -18 -4 -9 18 8 20 24 21 24 2z m50 -167 c0 -5 -27 -9 -60 -9 -33 0 -60
2 -60 4 0 2 14 35 30 72 l31 68 29 -63 c17 -35 30 -67 30 -72z m-140 -13 c0
-8 -7 -16 -15 -20 -13 -4 -14 -2 -5 14 13 23 20 26 20 6z m176 -13 c-10 -10
-19 5 -10 18 6 11 8 11 12 0 2 -7 1 -15 -2 -18z"/>
<path d="M3590 1170 l0 -180 25 0 25 0 0 113 0 112 47 -50 c25 -27 77 -83 115
-124 l68 -73 0 186 0 186 -25 0 -25 0 0 -120 0 -120 -115 125 -115 125 0 -180z
m60 70 c0 -4 -7 -10 -15 -14 -11 -4 -15 2 -15 21 0 21 2 24 15 13 8 -7 15 -16
15 -20z m190 -166 c0 -22 -2 -25 -15 -14 -12 10 -13 16 -4 26 16 20 19 18 19
-12z"/>
<path d="M2040 1329 c-42 -17 -80 -61 -95 -112 -30 -101 22 -200 121 -227 175
-49 303 153 186 292 -14 17 -41 37 -59 44 -37 16 -116 17 -153 3z m146 -59
c21 -14 39 -36 49 -64 16 -42 16 -46 -4 -90 -16 -38 -29 -51 -67 -67 -45 -20
-48 -20 -91 -4 -55 21 -83 63 -83 123 0 36 6 48 40 82 34 34 46 40 81 40 24 0
55 -8 75 -20z"/>
<path d="M2350 1165 l0 -175 85 0 c84 0 85 0 85 25 0 24 -3 25 -61 25 l-60 0
3 150 3 150 -27 0 -28 0 0 -175z"/>
<path d="M2570 1165 l0 -175 100 0 c100 0 100 0 100 25 0 24 -2 25 -75 25
l-75 0 0 56 0 56 60 -4 c60 -3 60 -3 60 25 0 26 -1 27 -60 27 l-60 0 0 45 0
45 50 0 c47 0 50 2 50 25 0 24 -2 25 -75 25 l-75 0 0 -175z"/>
<path d="M4333 1319 c-35 -11 -63 -24 -63 -28 0 -5 9 -7 20 -4 19 5 20 0 20
-134 0 -149 4 -163 50 -163 47 0 50 12 50 187 0 90 -3 163 -7 162 -5 0 -36 -9
-70 -20z m47 -154 c0 -138 -1 -145 -20 -145 -19 0 -20 7 -20 119 0 66 -3 126
-6 135 -5 13 12 27 44 35 1 1 2 -64 2 -144z"/>
<path d="M4085 1316 c-43 -18 -93 -79 -101 -121 -9 -50 1 -114 23 -144 55 -75
175 -81 237 -12 27 29 13 38 -20 12 -15 -11 -33 -21 -41 -21 -28 0 -73 34 -89
69 -19 40 -19 40 78 94 31 18 62 42 68 55 9 20 6 28 -19 53 -33 33 -83 38
-136 15z m122 -28 c14 -11 10 -43 -6 -43 -7 0 -19 14 -26 32 -12 29 -12 31 3
26 9 -3 22 -10 29 -15z m-63 -4 c9 -8 16 -28 16 -43 0 -22 -9 -32 -41 -51
l-42 -23 5 47 c3 26 14 56 23 66 22 24 20 24 39 4z m-83 -95 c2 -75 23 -133
55 -152 23 -13 16 -28 -10 -23 -31 6 -74 34 -86 57 -6 10 -10 47 -10 82 0 50
5 70 21 91 12 15 23 25 25 23 2 -2 4 -37 5 -78z"/>
<path d="M712 1134 c-12 -19 -20 -34 -18 -34 7 0 49 61 44 65 -2 2 -13 -12
-26 -31z"/>
<path d="M976 1135 c4 -8 11 -15 16 -15 6 0 5 6 -2 15 -7 8 -14 15 -16 15 -2
0 -1 -7 2 -15z"/>
<path d="M676 1082 c-4 -7 0 -19 8 -28 17 -17 19 -11 7 20 -5 14 -10 16 -15 8z"/>
<path d="M207 938 c48 -68 126 -179 174 -247 l87 -124 176 -1 c97 0 176 0 176
1 0 4 -74 107 -80 113 -12 10 -250 349 -256 364 -5 14 -31 16 -185 16 l-178 0
86 -122z m84 91 c21 -11 23 -11 11 3 -12 15 -4 16 72 14 52 -1 90 -7 100 -15
9 -7 35 -43 60 -80 24 -36 58 -84 75 -107 l30 -40 -20 -35 -19 -34 21 27 22
26 45 -59 45 -60 -31 -42 c-44 -62 -71 -61 -112 2 -17 28 -33 51 -34 51 -2 0
-18 -22 -37 -50 -36 -52 -44 -58 -52 -37 -2 6 -33 52 -68 100 -35 49 -68 96
-74 105 -5 9 -16 23 -23 30 -7 8 -11 21 -8 29 3 8 2 11 -3 8 -11 -6 -132 165
-125 176 7 11 99 3 125 -12z m290 -401 c27 -33 24 -38 -26 -38 -25 0 -45 3
-45 6 0 10 35 53 43 54 5 0 17 -10 28 -22z m189 -25 c0 -8 -12 -13 -35 -13
-40 0 -41 2 -19 36 16 23 18 24 35 8 11 -10 19 -23 19 -31z"/>
<path d="M319 995 c6 -11 20 -31 31 -45 15 -17 18 -19 11 -5 -6 11 -20 31 -31
45 -15 17 -18 19 -11 5z"/>
<path d="M471 776 c22 -36 48 -71 57 -78 8 -7 -8 22 -36 65 -29 42 -55 77 -57
77 -2 0 14 -29 36 -64z"/>
<path d="M580 715 c-7 -9 -11 -17 -9 -20 3 -2 10 5 17 15 14 24 10 26 -8 5z"/>
<path d="M573 1053 c9 -2 23 -2 30 0 6 3 -1 5 -18 5 -16 0 -22 -2 -12 -5z"/>
<path d="M985 1024 c-9 -15 -12 -23 -6 -20 11 7 35 46 28 46 -3 0 -12 -12 -22
-26z"/>
<path d="M690 966 c0 -2 8 -10 18 -17 15 -13 16 -12 3 4 -13 16 -21 21 -21 13z"/>
<path d="M915 924 c-9 -15 -12 -23 -6 -20 11 7 35 46 28 46 -3 0 -12 -12 -22
-26z"/>
<path d="M720 921 c0 -5 4 -12 9 -15 20 -13 82 -118 77 -131 -3 -9 0 -12 8 -9
7 3 27 -17 47 -46 19 -27 37 -50 42 -50 11 0 -17 -50 -43 -77 -11 -13 -19 -23
-18 -23 35 -5 148 -3 148 2 0 3 -3 8 -8 10 -4 2 -41 50 -81 108 -41 58 -77
107 -80 110 -3 3 -24 31 -45 63 -40 59 -56 76 -56 58z m220 -325 c0 -3 -14 -6
-32 -6 -30 0 -31 1 -13 20 15 16 19 17 31 5 8 -7 14 -16 14 -19z"/>
<path d="M1990 835 c0 -35 4 -54 10 -50 6 3 10 26 10 50 0 24 -4 47 -10 50 -6
4 -10 -15 -10 -50z"/>
<path d="M2283 835 c0 -33 2 -45 4 -27 2 18 2 45 0 60 -2 15 -4 0 -4 -33z"/>
<path d="M2313 835 c0 -33 2 -45 4 -27 2 18 2 45 0 60 -2 15 -4 0 -4 -33z"/>
<path d="M2762 869 c-4 -11 -6 -37 -3 -57 l6 -37 3 33 c2 17 9 32 15 32 7 0 6
4 -3 11 -11 8 -12 12 -2 16 15 6 16 23 2 23 -6 0 -14 -9 -18 -21z"/>
<path d="M3400 835 c0 -35 4 -54 10 -50 6 3 10 26 10 50 0 24 -4 47 -10 50 -6
4 -10 -15 -10 -50z"/>
<path d="M3690 834 c0 -32 3 -54 7 -50 12 11 14 94 3 101 -6 4 -10 -15 -10
-51z"/>
<path d="M3801 838 c-1 -55 0 -56 25 -53 15 1 30 8 34 16 13 20 -8 52 -30 46
-14 -4 -20 2 -23 22 -2 14 -5 1 -6 -31z m47 -21 c2 -12 -3 -17 -17 -17 -12 0
-21 6 -21 13 0 31 32 34 38 4z"/>
<path d="M3949 885 c-7 -6 -2 -95 5 -102 3 -4 6 19 6 50 0 55 -2 62 -11 52z"/>
<path d="M1450 830 c0 -49 1 -50 30 -50 17 0 30 5 30 10 0 6 -11 10 -25 10
-32 0 -34 27 -2 33 l22 4 -22 2 c-33 2 -29 29 5 34 25 4 25 4 -5 6 l-33 1 0
-50z"/>
<path d="M2063 830 c0 -30 2 -43 4 -27 2 15 2 39 0 55 -2 15 -4 2 -4 -28z"/>
<path d="M2951 828 c1 -29 4 -41 6 -26 3 18 11 28 26 30 34 5 29 42 -5 46 -28
3 -28 3 -27 -50z m42 27 c1 -5 -6 -11 -15 -13 -11 -2 -18 3 -18 13 0 17 30 18
33 0z"/>
<path d="M3478 868 c-2 -7 -3 -29 -3 -48 0 -34 1 -35 37 -35 28 0 34 3 26 13
-7 8 -7 17 2 27 9 10 9 15 1 15 -6 0 -11 -4 -11 -10 0 -5 -4 -10 -10 -10 -5 0
-7 13 -3 30 5 25 2 30 -15 30 -11 0 -22 -6 -24 -12z m32 -8 c0 -5 -4 -10 -10
-10 -5 0 -10 5 -10 10 0 6 5 10 10 10 6 0 10 -4 10 -10z m-2 -48 c2 -7 -3 -12
-12 -12 -9 0 -16 7 -16 16 0 17 22 14 28 -4z"/>
<path d="M3600 859 c-17 -30 -4 -68 25 -75 31 -8 45 2 45 32 0 16 -5 24 -17
23 -11 0 -13 -3 -5 -6 19 -7 14 -33 -7 -33 -29 0 -45 25 -31 50 9 17 17 20 37
15 16 -4 22 -2 18 5 -11 18 -54 11 -65 -11z"/>
<path d="M4010 829 c0 -27 4 -48 8 -45 12 7 12 96 1 96 -5 0 -9 -23 -9 -51z"/>
<path d="M1708 857 c-7 -20 6 -70 20 -75 6 -2 12 1 12 7 0 6 -4 11 -10 11 -12
0 -13 37 -1 42 5 2 3 8 -4 15 -10 9 -14 9 -17 0z"/>
<path d="M2169 858 c-3 -29 3 -64 13 -73 6 -7 7 0 2 19 -4 16 -2 31 4 35 6 4
5 11 -4 19 -11 10 -14 10 -15 0z"/>
<path d="M4355 850 c-3 -5 -12 -7 -20 -3 -18 6 -45 -14 -45 -33 0 -20 39 -39
53 -25 8 8 5 11 -10 11 -12 0 -24 4 -27 8 -8 14 8 28 32 28 16 0 22 -6 22 -23
0 -23 17 -40 28 -28 4 4 1 10 -5 12 -16 6 -17 40 -1 45 8 3 6 7 -5 11 -9 3
-19 2 -22 -3z"/>
<path d="M1521 812 c1 -35 2 -36 8 -8 9 43 31 45 32 4 l1 -33 7 29 c9 42 29
44 34 4 l4 -33 1 36 2 36 -45 1 -45 0 1 -36z"/>
<path d="M1637 844 c-23 -23 7 -69 37 -58 25 10 17 58 -9 62 -12 2 -24 0 -28
-4z m41 -27 c2 -12 -3 -17 -17 -17 -12 0 -21 6 -21 13 0 31 32 34 38 4z"/>
<path d="M1753 815 c0 -22 2 -30 4 -17 2 12 2 30 0 40 -3 9 -5 -1 -4 -23z"/>
<path d="M1780 831 c-7 -15 -6 -24 6 -36 9 -9 21 -14 27 -12 18 6 31 33 24 51
-9 22 -44 20 -57 -3z m45 -12 c0 -7 -8 -15 -17 -17 -18 -3 -25 18 -11 32 10
10 28 1 28 -15z"/>
<path d="M1850 821 c0 -17 5 -31 10 -31 6 0 10 11 10 25 0 35 18 31 29 -7 l10
-33 -2 35 c-2 30 -6 35 -29 38 -25 3 -28 0 -28 -27z"/>
<path d="M1930 840 c0 -5 7 -7 15 -4 18 7 21 -31 3 -42 -8 -5 -9 -2 -5 9 4 11
1 17 -8 17 -18 0 -20 -27 -2 -33 35 -11 55 11 41 47 -7 17 -44 22 -44 6z"/>
<path d="M2091 813 l1 -38 9 33 c12 41 29 42 29 1 0 -16 4 -28 8 -25 5 3 7 19
4 36 -3 24 -9 30 -28 30 -21 0 -24 -4 -23 -37z"/>
<path d="M2212 838 c-6 -6 -12 -17 -12 -24 0 -19 28 -37 47 -29 16 7 15 9 -7
15 -25 8 -25 8 -2 9 17 1 22 6 20 18 -4 22 -29 28 -46 11z m33 -8 c3 -5 -1
-10 -9 -10 -9 0 -16 5 -16 10 0 6 4 10 9 10 6 0 13 -4 16 -10z"/>
<path d="M2343 815 c0 -22 2 -30 4 -17 2 12 2 30 0 40 -3 9 -5 -1 -4 -23z"/>
<path d="M2377 843 c-4 -3 -7 -17 -7 -30 0 -18 5 -23 25 -23 14 0 25 -5 25
-11 0 -7 -10 -9 -25 -7 -27 6 -34 -6 -10 -16 30 -11 45 5 45 50 0 39 -2 44
-23 44 -13 0 -27 -3 -30 -7z m41 -26 c2 -12 -3 -17 -17 -17 -12 0 -21 6 -21
13 0 31 32 34 38 4z"/>
<path d="M2451 832 c-14 -27 9 -58 35 -47 17 7 17 8 -6 15 -25 8 -25 8 -2 9
17 1 22 6 20 18 -5 25 -35 28 -47 5z m34 -2 c3 -5 -1 -10 -9 -10 -9 0 -16 5
-16 10 0 6 4 10 9 10 6 0 13 -4 16 -10z"/>
<path d="M2521 813 c1 -36 2 -37 8 -8 3 17 11 30 16 30 5 0 13 -13 17 -30 6
-29 6 -29 5 5 -2 28 -6 36 -24 38 -21 3 -23 -1 -22 -35z"/>
<path d="M2590 831 c-15 -29 28 -69 45 -41 3 6 -3 10 -15 10 -15 0 -20 5 -18
18 2 10 11 16 21 14 9 -2 17 2 17 8 0 18 -39 11 -50 -9z"/>
<path d="M2657 843 c-25 -24 8 -74 36 -56 7 4 2 10 -13 14 -25 7 -25 7 4 8 21
1 27 5 22 17 -3 9 -6 18 -6 20 0 7 -36 5 -43 -3z m33 -13 c0 -5 -7 -10 -16
-10 -8 0 -12 5 -9 10 3 6 10 10 16 10 5 0 9 -4 9 -10z"/>
<path d="M2799 834 c-15 -18 -2 -47 24 -52 22 -5 42 35 26 54 -15 18 -33 18
-50 -2z m39 -17 c2 -10 -3 -17 -12 -17 -18 0 -29 16 -21 31 9 14 29 6 33 -14z"/>
<path d="M2871 813 c1 -27 3 -31 6 -13 2 14 12 31 21 38 14 11 13 12 -6 12
-19 0 -22 -5 -21 -37z"/>
<path d="M3027 844 c-24 -25 7 -75 36 -57 7 4 2 10 -13 14 -25 7 -25 7 3 8 21
1 28 5 25 19 -3 17 -38 29 -51 16z m33 -14 c0 -5 -7 -10 -16 -10 -8 0 -12 5
-9 10 3 6 10 10 16 10 5 0 9 -4 9 -10z"/>
<path d="M3090 814 c0 -19 4 -33 9 -30 5 3 7 15 4 25 -6 25 17 39 29 17 5 -9
16 -16 24 -16 8 0 13 -4 9 -10 -3 -5 -13 -6 -23 -3 -13 4 -14 3 -6 -6 11 -12
44 -5 44 10 0 5 -7 12 -15 15 -8 4 -15 10 -15 16 0 5 5 6 10 3 6 -3 10 -2 10
3 0 5 -18 10 -40 10 -39 1 -40 0 -40 -34z"/>
<path d="M3197 844 c-13 -13 -7 -52 9 -58 22 -9 46 13 42 38 -3 21 -37 34 -51
20z m38 -25 c0 -7 -8 -15 -17 -17 -18 -3 -25 18 -11 32 10 10 28 1 28 -15z"/>
<path d="M3260 821 c0 -17 5 -31 10 -31 6 0 10 11 10 25 0 35 18 31 29 -7 l10
-33 -2 35 c-2 30 -6 35 -29 38 -25 3 -28 0 -28 -27z"/>
<path d="M3340 840 c0 -5 7 -7 15 -4 18 7 21 -31 3 -42 -8 -5 -9 -2 -5 9 4 11
1 17 -8 17 -18 0 -20 -27 -2 -33 35 -11 55 11 41 47 -7 17 -44 22 -44 6z"/>
<path d="M3729 834 c-9 -11 -10 -20 -3 -32 15 -23 29 -25 48 -7 12 12 13 21 6
36 -13 23 -33 25 -51 3z m39 -17 c2 -10 -3 -17 -12 -17 -18 0 -29 16 -21 31 9
14 29 6 33 -14z"/>
<path d="M3880 841 c0 -6 6 -8 14 -5 8 3 16 -3 19 -15 3 -14 0 -21 -10 -21 -8
0 -11 5 -8 10 3 6 2 10 -4 10 -16 0 -25 -22 -11 -30 7 -4 21 -5 32 -2 28 7 21
56 -9 60 -13 2 -23 -1 -23 -7z"/>
<path d="M4040 820 c0 -17 5 -30 10 -30 6 0 10 11 10 25 0 14 5 25 10 25 6 0
10 -14 10 -32 0 -17 3 -28 7 -24 4 4 8 17 8 28 0 12 6 23 13 25 7 3 12 -5 12
-21 0 -14 5 -26 10 -26 11 0 12 6 4 36 -5 18 -14 22 -50 22 -42 1 -44 0 -44
-28z"/>
<path d="M4151 798 c1 -29 4 -43 6 -31 3 16 11 22 25 20 11 -1 25 5 31 15 14
22 -7 48 -39 48 -22 0 -24 -4 -23 -52z m46 27 c7 -20 -2 -29 -21 -22 -9 4 -13
13 -10 22 8 19 23 19 31 0z"/>
<path d="M4230 840 c0 -6 5 -8 11 -4 6 3 15 0 20 -7 13 -21 11 -29 -7 -29 -8
0 -12 5 -9 10 3 6 1 10 -4 10 -13 0 -15 -27 -2 -34 5 -4 17 -3 26 0 25 10 16
58 -12 62 -13 2 -23 -2 -23 -8z"/>
</g>
</svg>
